<svg xmlns="http://www.w3.org/2000/svg" xmlns:xlink="http://www.w3.org/1999/xlink" width="1080" zoomAndPan="magnify" viewBox="0 410 810 300" height="500" preserveAspectRatio="xMidYMid meet" version="1.0"> 

<path fill="#ededed" d="M 87.050781 652.796875 C 87.285156 653.5 87.753906 653.96875 88.457031 653.96875 C 90.328125 653.96875 92.203125 653.96875 93.839844 653.734375 C 117.253906 650.222656 139.496094 647.878906 160.566406 646.707031 C 164.546875 646.476562 170.402344 646.707031 177.894531 647.175781 C 187.726562 647.878906 204.585938 653.5 198.730469 666.84375 C 196.625 671.292969 191.707031 674.335938 187.023438 675.976562 C 181.640625 677.847656 176.253906 679.253906 170.636719 680.421875 C 150.734375 684.636719 124.042969 690.023438 102.503906 695.175781 C 91.265625 697.984375 80.496094 700.558594 70.195312 702.667969 C 62.234375 704.304688 54.976562 705.476562 48.417969 706.179688 C 43.972656 706.644531 37.882812 706.644531 33.902344 705.007812 C 22.195312 700.558594 20.324219 686.980469 24.539062 676.210938 C 26.644531 671.058594 28.988281 665.90625 31.5625 660.992188 C 36.945312 650.6875 43.503906 638.984375 51.464844 626.105469 C 55.445312 619.785156 68.554688 598.710938 90.796875 563.125 C 102.503906 544.394531 114.445312 524.726562 123.574219 502.953125 C 127.554688 493.355469 129.664062 483.519531 130.132812 473.453125 C 130.597656 460.105469 124.042969 449.101562 109.292969 449.804688 C 93.371094 450.507812 80.261719 461.980469 72.300781 475.558594 C 66.449219 485.160156 62.46875 495.695312 60.359375 506.699219 C 59.191406 511.851562 59.191406 520.980469 56.847656 526.367188 C 51.699219 537.839844 36.945312 540.648438 27.113281 532.21875 C 21.960938 527.769531 18.917969 521.917969 17.75 514.425781 C 13.535156 484.925781 27.816406 455.191406 49.589844 436.929688 C 76.28125 414.921875 115.378906 409.300781 144.882812 429.4375 C 152.140625 434.351562 159.632812 444.65625 162.675781 454.019531 C 171.339844 480.710938 164.3125 511.382812 152.839844 536.902344 C 135.28125 575.300781 115.613281 605.503906 91.5 644.367188 C 89.390625 647.878906 87.988281 650.222656 87.519531 651.390625 C 87.285156 652.09375 87.050781 652.5625 87.050781 652.796875 Z M 511.0625 649.988281 C 512.933594 649.988281 514.808594 649.988281 516.914062 649.753906 C 536.347656 646.242188 554.375 643.664062 571 642.261719 C 576.851562 641.792969 583.171875 641.558594 590.195312 641.792969 C 602.605469 642.027344 618.761719 646.707031 615.484375 662.863281 C 614.3125 669.183594 609.628906 673.398438 603.777344 675.742188 C 598.859375 677.378906 593.710938 679.019531 588.324219 680.191406 C 563.507812 685.339844 538.453125 690.726562 512.699219 695.640625 C 511.296875 695.875 505.441406 696.8125 495.375 698.453125 C 484.136719 700.089844 474.070312 700.792969 465.171875 700.089844 C 449.25 699.152344 440.820312 688.382812 443.398438 672.699219 C 444.566406 665.207031 447.378906 657.246094 452.058594 648.816406 C 456.742188 640.152344 461.191406 632.425781 465.875 625.402344 C 475.941406 610.417969 485.539062 596.605469 494.671875 584.195312 C 515.507812 556.335938 533.070312 533.859375 547.585938 507.402344 C 554.375 494.992188 570.765625 456.828125 549.222656 450.507812 C 545.011719 449.101562 540.328125 449.335938 534.941406 450.976562 C 519.019531 455.660156 508.953125 470.878906 503.570312 485.628906 C 498.652344 498.972656 496.3125 517.9375 476.644531 516.0625 C 466.34375 514.894531 459.316406 505.996094 456.976562 496.398438 C 455.105469 487.5 456.039062 476.964844 459.316406 467.832031 C 471.492188 434.351562 503.804688 414.6875 538.6875 415.386719 C 563.972656 415.855469 585.984375 428.5 596.285156 451.914062 C 603.308594 467.832031 602.605469 487.734375 598.625 505.058594 C 592.304688 533.625 577.320312 557.972656 559.527344 581.621094 C 550.160156 594.03125 539.15625 608.546875 525.8125 625.871094 C 520.191406 633.128906 515.042969 640.855469 510.359375 648.347656 C 510.359375 648.582031 510.359375 648.816406 510.359375 648.816406 C 510.359375 649.519531 510.59375 649.988281 511.0625 649.988281 Z M 691.574219 547.90625 C 691.574219 547.90625 691.574219 548.140625 691.808594 548.140625 C 691.808594 549.078125 692.746094 549.542969 693.683594 549.542969 C 693.917969 549.3125 693.917969 549.3125 694.152344 549.3125 C 695.789062 548.375 698.132812 546.96875 701.410156 545.097656 C 711.242188 539.242188 722.949219 536.199219 733.953125 535.730469 C 774.925781 533.625 796.464844 568.042969 794.59375 605.269531 C 793.890625 621.1875 790.144531 637.109375 783.824219 651.15625 C 766.496094 689.085938 725.289062 712.03125 684.550781 694.707031 C 657.160156 682.765625 640.066406 657.480469 633.511719 628.679688 C 631.871094 620.953125 630.234375 610.417969 630.234375 602.457031 C 629.765625 580.917969 632.105469 559.613281 637.492188 538.304688 C 645.921875 504.824219 659.265625 472.984375 677.761719 443.25 C 680.335938 439.035156 683.613281 434.585938 687.59375 430.136719 C 694.621094 422.414062 702.578125 418.898438 712.179688 419.601562 C 719.671875 420.070312 738.402344 424.519531 738.167969 434.820312 C 737.933594 439.269531 736.292969 443.71875 733.25 447.933594 C 711.476562 476.964844 697.664062 509.273438 692.042969 544.628906 C 691.808594 545.566406 691.808594 546.734375 691.574219 547.90625 Z M 754.324219 581.152344 C 748.234375 571.320312 739.105469 569.679688 729.269531 575.300781 C 708.433594 587.003906 690.640625 614.398438 693.683594 639.449219 C 696.492188 663.800781 720.609375 674.570312 739.804688 658.414062 C 751.980469 647.878906 758.300781 632.660156 760.410156 616.507812 C 761.816406 604.800781 760.410156 591.453125 754.324219 581.152344 Z M 322.585938 500.847656 C 325.160156 495.460938 326.800781 491.949219 327.503906 490.542969 C 332.886719 480.242188 339.675781 471.109375 347.871094 462.917969 C 362.386719 448.632812 386.503906 439.738281 405.9375 448.402344 C 438.480469 462.683594 434.5 507.402344 428.414062 535.261719 C 420.453125 569.679688 406.871094 602.691406 387.675781 633.597656 C 375.265625 653.265625 361.453125 669.886719 345.53125 683.9375 C 342.957031 686.277344 339.210938 689.085938 334.058594 692.363281 C 326.332031 697.515625 317.902344 698.6875 309.242188 696.109375 C 301.515625 693.769531 294.257812 690.257812 287.234375 685.339844 C 253.285156 661.460938 227.0625 624.699219 210.671875 587.003906 C 197.5625 557.269531 192.644531 525.664062 196.15625 492.652344 C 197.328125 479.773438 200.605469 467.363281 205.753906 455.660156 C 211.84375 441.140625 222.847656 428.96875 238.535156 425.457031 C 262.179688 420.070312 282.785156 431.542969 296.597656 450.273438 C 304.792969 461.277344 311.347656 472.75 316.03125 484.925781 C 317.902344 489.375 319.777344 494.757812 322.117188 500.847656 C 322.117188 500.847656 322.117188 500.847656 322.117188 501.078125 C 322.117188 501.078125 322.351562 501.078125 322.585938 501.078125 C 322.585938 500.847656 322.585938 500.847656 322.585938 500.847656 Z M 322.585938 500.847656 " fill-opacity="1" fill-rule="evenodd"/>


</svg>